<svg width="250" height="25" viewBox="0 0 250 25" fill="none" xmlns="http://www.w3.org/2000/svg">
<path d="M12.5645 18.8744H0V0H3.97981V15.2159H12.5645V18.8744ZM26.5319 17.1746C23.7656 19.2646 20.7495 19.8425 17.545 18.609C14.2852 17.3555 12.5141 13.8202 13.102 10.0491C13.6467 6.55085 16.5257 3.90587 20.0374 3.67691C23.3888 3.53663 26.4094 5.79882 27.3957 9.18776C27.6235 9.99847 27.4415 10.3113 26.7331 10.6202C24.2105 11.7199 21.7151 12.8911 19.2114 14.0391C18.8877 14.1859 18.5747 14.3545 18.1362 14.5741C20.0575 15.9753 22.1984 15.8015 25.0356 14.0836L27.5732 16.4055C27.1734 16.7006 26.8494 16.9337 26.5319 17.1746ZM19.2428 7.46443C17.5413 8.14357 16.7248 9.60279 17.0179 11.6099L23.3765 8.84754C22.9546 8.13695 22.3073 7.60779 21.5502 7.35445C20.793 7.10112 19.9753 7.1401 19.2428 7.46443ZM43.0408 18.5658H39.1773V14.2007C39.1773 13.0598 39.1834 11.9182 39.1773 10.7773C39.1623 8.72468 38.0853 7.31964 36.5084 7.28416C34.4768 7.23676 32.9112 8.70178 32.8673 10.7824C32.8214 12.9495 32.8541 15.1182 32.8526 17.2862V18.5719H28.9983V4.33832H32.4773L32.6333 5.49892C33.9211 4.71702 35.3326 4.18861 36.7991 3.93941C39.9801 3.50019 42.7354 5.57019 42.9937 9.032C43.2246 12.161 43.0408 15.3252 43.0408 18.5658ZM52.0005 18.9679C47.937 19.0247 44.599 15.5883 44.545 11.2923V11.2084C44.5303 6.91622 47.8038 3.41989 51.864 3.39216C55.9241 3.36443 59.24 6.81496 59.2782 11.1075C59.3158 15.4 56.0612 18.9157 52.0014 18.9679H52.0005ZM51.9302 7.27159C49.8843 7.27643 48.2262 9.02652 48.2182 11.1891C48.2149 12.2164 48.5979 13.2031 49.283 13.9324C49.6221 14.2933 50.0252 14.58 50.4692 14.7762C50.9133 14.9724 51.3896 15.0743 51.871 15.0759H51.9321C53.9352 15.0579 55.565 13.3639 55.616 11.2461C55.6056 9.08554 53.9731 7.32512 51.9302 7.27159ZM64.7317 18.8879L58.6299 4.32896H63.0039L66.5685 13.5209L70.0789 4.32896H74.183L68.7827 18.8876H64.732L64.7317 18.8879ZM88.5556 11.132C88.5996 15.4268 85.3462 18.9489 81.2836 19.0037C77.2211 19.0585 73.8838 15.6254 73.8242 11.3306V11.1936C73.808 6.89267 77.0928 3.39248 81.1609 3.37539C85.229 3.3583 88.5397 6.83108 88.5559 11.1317H88.5556V11.132ZM81.1627 7.27352C79.1214 7.3335 77.4926 9.09392 77.4813 11.2529C77.5411 13.3697 79.1714 15.0585 81.1743 15.0785C83.1983 15.1043 84.8582 13.3903 84.8827 11.2507V11.1846C84.8662 9.0233 83.2071 7.27901 81.1627 7.27352Z" fill="white"/>
<g opacity="0.95" clip-path="url(#clip0_5440_14637)">
<path d="M117.561 1.73828V18.436H114.017V6.94541L108.834 11.5292L103.652 6.94541V18.436H100.107V1.73828H103.594L108.834 6.37192L114.075 1.73828H117.561Z" fill="white"/>
<path d="M125.316 5.5293C122.071 5.5293 119.44 8.38844 119.44 11.9167C119.44 15.4449 122.071 18.2999 125.316 18.2999C128.562 18.2999 131.192 15.4407 131.192 11.9167C131.192 8.3926 128.562 5.5293 125.316 5.5293ZM125.873 14.9587C125.272 14.9496 124.688 14.7632 124.193 14.4229C123.698 14.0826 123.315 13.6035 123.091 13.0459C122.868 12.4883 122.814 11.8771 122.937 11.2892C123.06 10.7012 123.354 10.1627 123.782 9.74145C124.211 9.32017 124.754 9.03489 125.344 8.92148C125.934 8.80807 126.544 8.87159 127.098 9.10407C127.652 9.33654 128.124 9.72758 128.457 10.228C128.789 10.7285 128.966 11.316 128.965 11.9167C128.962 12.3194 128.879 12.7176 128.722 13.0884C128.565 13.4593 128.336 13.7956 128.049 14.078C127.762 14.3605 127.422 14.5837 127.049 14.7348C126.675 14.8859 126.276 14.9619 125.873 14.9587Z" fill="white"/>
<path d="M141.287 5.5293C138.041 5.5293 135.431 8.38844 135.431 11.9167C135.431 15.4449 138.062 18.2999 141.307 18.2999C144.553 18.2999 147.184 15.4407 147.184 11.9167C147.184 8.3926 144.532 5.5293 141.287 5.5293ZM141.856 14.9587C141.255 14.9496 140.671 14.7632 140.176 14.4229C139.681 14.0826 139.297 13.6035 139.074 13.0459C138.851 12.4883 138.797 11.8771 138.92 11.2892C139.043 10.7012 139.337 10.1627 139.765 9.74145C140.193 9.32017 140.737 9.03489 141.327 8.92148C141.916 8.80807 142.527 8.87159 143.081 9.10407C143.634 9.33654 144.107 9.72758 144.439 10.228C144.772 10.7285 144.949 11.316 144.948 11.9167C144.945 12.3194 144.862 12.7176 144.705 13.0884C144.548 13.4593 144.319 13.7956 144.032 14.078C143.745 14.3605 143.405 14.5837 143.031 14.7348C142.658 14.8859 142.259 14.9619 141.856 14.9587Z" fill="white"/>
<path d="M229.774 1.31836V18.0244H226.246V1.31836" fill="white"/>
<path d="M235.776 14.1928L236.731 13.9227L238.211 13.5071L241.203 12.6759L244.411 11.7741L244.515 11.7451C244.482 11.3706 244.418 10.9994 244.324 10.6355C243.405 6.98674 239.881 4.73849 236.478 5.59042C233.074 6.44234 231.05 10.1119 231.969 13.7481C232.09 14.2235 232.259 14.6857 232.472 15.1278C232.893 16.0187 233.504 16.807 234.261 17.4378C235.018 18.0687 235.904 18.5269 236.856 18.7807C237.399 18.9193 237.958 18.9822 238.518 18.9677C238.963 18.9556 239.405 18.8943 239.836 18.7849C239.94 18.7599 240.048 18.7308 240.147 18.6976L240.492 18.5771C241.938 17.9749 243.229 17.0544 244.27 15.8842L242.063 14.0099C240.584 15.1486 239.877 15.4104 239.125 15.5974C238.724 15.6825 238.31 15.6873 237.907 15.6117C237.504 15.5361 237.12 15.3816 236.777 15.1569C236.367 14.9142 236.008 14.5954 235.717 14.2177L235.776 14.1928ZM234.82 11.7575C234.857 11.0555 235.11 10.3821 235.544 9.82946C235.979 9.27677 236.573 8.87176 237.247 8.66981C237.46 8.6163 237.679 8.58703 237.899 8.58254C238.708 8.57376 239.493 8.86041 240.106 9.38875C240.352 9.58958 240.571 9.82146 240.758 10.0786L234.82 11.7575Z" fill="white"/>
<path d="M133.644 6.16406H130.116V18.2988H133.644V6.16406Z" fill="white"/>
<path d="M172.484 5.5293C169.238 5.5293 166.607 8.38844 166.607 11.9167C166.607 15.4449 169.238 18.2999 172.484 18.2999C175.729 18.2999 178.36 15.4407 178.36 11.9167C178.36 8.3926 175.742 5.5293 172.484 5.5293ZM173.053 14.9587C172.453 14.9472 171.87 14.7587 171.376 14.4169C170.883 14.0752 170.502 13.5953 170.28 13.0375C170.059 12.4797 170.007 11.869 170.131 11.2818C170.255 10.6947 170.55 10.1574 170.979 9.73737C171.408 9.31733 171.951 9.03326 172.54 8.92083C173.13 8.80841 173.74 8.87262 174.293 9.10543C174.846 9.33823 175.318 9.72924 175.65 10.2294C175.981 10.7295 176.158 11.3165 176.157 11.9167C176.154 12.3205 176.071 12.7197 175.913 13.0913C175.755 13.463 175.525 13.7998 175.237 14.0825C174.949 14.3651 174.607 14.588 174.232 14.7384C173.858 14.8887 173.457 14.9636 173.053 14.9587Z" fill="white"/>
<path d="M180.812 6.16406H177.284V18.2988H180.812V6.16406Z" fill="white"/>
<path d="M215.138 5.5293C211.892 5.5293 209.262 8.38844 209.262 11.9167C209.262 15.4449 211.896 18.2999 215.138 18.2999C218.379 18.2999 221.014 15.4407 221.014 11.9167C221.014 8.3926 218.384 5.5293 215.138 5.5293ZM215.707 14.9587C215.107 14.9496 214.522 14.7632 214.027 14.4229C213.532 14.0826 213.149 13.6035 212.925 13.0459C212.702 12.4883 212.648 11.8771 212.771 11.2892C212.894 10.7012 213.188 10.1627 213.617 9.74145C214.045 9.32017 214.588 9.03489 215.178 8.92148C215.768 8.80807 216.378 8.87159 216.932 9.10407C217.486 9.33654 217.959 9.72758 218.291 10.228C218.623 10.7285 218.8 11.316 218.799 11.9167C218.796 12.3194 218.713 12.7176 218.556 13.0884C218.399 13.4593 218.17 13.7956 217.883 14.078C217.596 14.3605 217.256 14.5837 216.883 14.7348C216.509 14.8859 216.11 14.9619 215.707 14.9587Z" fill="white"/>
<path d="M223.466 6.16406H219.938V18.2988H223.466V6.16406Z" fill="white"/>
<path d="M164.579 18.1865H160.893V10.594C160.893 9.59243 159.485 8.47038 157.934 8.51609C156.492 8.56596 155.005 10.1784 155.005 11.1882H152.885C155.291 8.4496 155.441 5.87305 158.225 5.87305C160.918 5.87305 164.588 7.56027 164.588 10.8599L164.579 18.1865Z" fill="white"/>
<path d="M155.433 6.16406H151.904V18.2988H155.433V6.16406Z" fill="white"/>
<path d="M141.332 24.0625C139.702 24.0622 138.115 23.5441 136.798 22.5831L138.847 19.7572C139.569 20.2925 140.442 20.5836 141.341 20.5884C143.003 20.5884 145.825 19.9567 145.825 15.7262V6.16797H149.315V15.7262C149.307 20.7837 146.178 24.0625 141.332 24.0625Z" fill="white"/>
<path d="M194.617 10.6155C194.337 10.2281 193.997 9.88731 193.611 9.60566C193.352 9.42217 193.073 9.2675 192.78 9.14437C191.918 8.8045 191.024 8.54979 190.112 8.38388L189.996 8.35894C189.951 8.3457 189.905 8.33597 189.858 8.32985L189.75 8.30907H189.671L189.007 8.17193C188.591 8.08051 188.25 7.98908 187.984 7.90181C187.626 7.79352 187.3 7.59787 187.037 7.33248L186.962 7.23274C186.768 6.9626 186.672 6.63395 186.692 6.30186C186.682 6.05692 186.741 5.8141 186.862 5.60103C186.983 5.38797 187.162 5.21322 187.378 5.09669C188.039 4.76118 188.777 4.60635 189.518 4.64787C190.082 4.65189 190.642 4.74013 191.18 4.90969L191.471 5.00527C191.818 5.1205 192.157 5.25935 192.485 5.42084L195.061 3.1435L194.953 3.07701C194.411 2.70594 193.835 2.38729 193.233 2.12535C192.636 1.86424 192.015 1.66106 191.379 1.51861C190.769 1.38304 190.147 1.31338 189.522 1.31082C188.797 1.30542 188.074 1.37928 187.365 1.53108C186.946 1.62115 186.537 1.75199 186.143 1.92172C185.255 2.29049 184.5 2.92103 183.978 3.72946C183.711 4.15401 183.517 4.6204 183.405 5.10916C183.288 5.59222 183.231 6.0876 183.234 6.58444C183.229 7.10196 183.286 7.61822 183.405 8.12206C183.52 8.62286 183.741 9.09323 184.053 9.50177C184.548 10.1583 185.222 10.6576 185.994 10.9396C186.313 11.0533 186.637 11.1504 186.966 11.2306C187.506 11.3718 188.117 11.4965 188.79 11.6046L189.011 11.6295C189.061 11.6443 189.112 11.6541 189.164 11.6586C189.681 11.7346 190.192 11.8443 190.694 11.9869C191.038 12.0826 191.353 12.2642 191.608 12.5147C191.723 12.6426 191.812 12.7924 191.868 12.9552C191.925 13.1179 191.948 13.2903 191.936 13.4622C191.943 13.732 191.875 13.9985 191.74 14.2323C191.605 14.4661 191.408 14.6583 191.172 14.7879C190.683 15.0601 190.139 15.2192 189.58 15.2533C189.36 15.2741 189.127 15.2824 188.882 15.2824C188.235 15.2831 187.59 15.2035 186.962 15.0455C186.758 14.9915 186.546 14.9333 186.351 14.8627C185.857 14.6979 185.384 14.4791 184.938 14.2102L182.391 16.4294L182.49 16.5125C182.774 16.7464 183.074 16.9602 183.388 17.1525C183.686 17.3375 183.996 17.504 184.315 17.6512C184.444 17.7135 184.577 17.7675 184.73 17.8215C185.302 18.0569 185.895 18.2377 186.501 18.3618C187.277 18.5254 188.068 18.6076 188.861 18.607C189.098 18.607 189.331 18.607 189.559 18.607C190.522 18.566 191.471 18.3608 192.364 18.0002C193.273 17.6437 194.052 17.0208 194.6 16.2133C195.133 15.3659 195.402 14.3795 195.373 13.3791C195.418 12.4012 195.154 11.434 194.617 10.6155Z" fill="white"/>
<path d="M208.119 16.1186L205.908 14.1654L205.588 13.8828C205.302 14.2143 204.947 14.48 204.548 14.6614C204.149 14.8429 203.716 14.936 203.277 14.9342C202.492 14.9454 201.734 14.646 201.168 14.1013C200.603 13.5565 200.275 12.8104 200.256 12.0252C200.257 11.2726 200.556 10.5509 201.087 10.018C201.61 9.48653 202.308 9.16313 203.051 9.10808C203.794 9.05303 204.532 9.27008 205.127 9.71878L207.786 7.36664C207.153 6.7731 206.409 6.31044 205.596 6.00519C204.783 5.69995 203.919 5.55812 203.051 5.58785C202.184 5.61758 201.33 5.81828 200.541 6.17844C199.751 6.53859 199.04 7.05112 198.449 7.68663C197.491 8.72064 196.905 10.0436 196.781 11.4473C196.658 12.8511 197.005 14.2561 197.767 15.4412C198.326 16.3205 199.091 17.0507 199.994 17.569C200.992 18.1475 202.124 18.4529 203.277 18.4541H203.523C203.931 18.4379 204.337 18.3851 204.736 18.2962C206.036 18.0034 207.216 17.3222 208.119 16.343C208.156 16.3056 208.19 16.2641 208.227 16.2225L208.119 16.1186Z" fill="white"/>
</g>
<defs>
<clipPath id="clip0_5440_14637">
<rect width="149.893" height="23.0643" fill="white" transform="translate(100.107 1)"/>
</clipPath>
</defs>
</svg>
